<?xml version="1.0" encoding="UTF-8"?>
<svg version="1.1" xmlns="http://www.w3.org/2000/svg" width="160" height="310">
<path d="M0 0 C16.9452055 13.15112775 28.48323071 31.65994634 31.56640625 53 C34.99342152 81.70563299 24.06517051 105.57389603 8.90478516 129.27075195 C5.37449811 134.79084707 1.94732029 140.3639098 -1.43017578 145.97875977 C-19.56134865 176.0798148 -19.56134865 176.0798148 -38 183 C-37.2265625 184.3303125 -37.2265625 184.3303125 -36.4375 185.6875 C-34.9131063 189.20023331 -34.85052105 190.44706507 -36 194 C-39.59099336 195.24303616 -42.31668957 194.68116015 -46 194 C-51.49773571 218.67517249 -51.49773571 218.67517249 -50.73046875 243.69140625 C-50.52976021 244.92449524 -50.52976021 244.92449524 -50.32499695 246.18249512 C-48.79163227 255.47988417 -47.05771166 264.74050648 -45.3125 274 C-44.68052876 277.35360153 -44.052059 280.70783112 -43.42578125 284.0625 C-43.21022331 285.19667358 -43.21022331 285.19667358 -42.99031067 286.35375977 C-42.44342445 289.28489597 -42 292.01070668 -42 295 C-42.99 294.67 -43.98 294.34 -45 294 C-46.10419157 288.09614321 -47.20683076 282.19199924 -48.30810547 276.28759766 C-48.68204006 274.28393955 -49.05638008 272.28035706 -49.43115234 270.27685547 C-50.48490158 264.64280955 -51.53018341 259.0073317 -52.56286621 253.36938477 C-52.93526498 251.3508815 -53.31854235 249.33439022 -53.70410156 247.31835938 C-55.58647822 237.04662501 -55.18055771 227.42150723 -53.6875 217.125 C-53.55432373 216.1747998 -53.42114746 215.22459961 -53.28393555 214.24560547 C-52.24020357 207.05626712 -50.86894274 200.0251039 -49 193 C-49.93199219 193.32613281 -50.86398438 193.65226563 -51.82421875 193.98828125 C-54.80804378 194.9388479 -56.90523818 195.2652653 -60 195 C-60.33 194.67 -60.66 194.34 -61 194 C-60.64555385 189.30358856 -59.96938435 186.61594385 -57 183 C-58.34191406 182.50693359 -58.34191406 182.50693359 -59.7109375 182.00390625 C-74.77391014 176.07828055 -82.2919126 166.89737035 -90.56152344 153.34423828 C-92.49933178 150.18625531 -94.49371156 147.06563031 -96.48608398 143.94189453 C-98.50868275 140.76301248 -100.50996061 137.57100277 -102.50927734 134.37744141 C-103.49862474 132.79960568 -104.49111311 131.22373485 -105.48681641 129.64990234 C-121.85184813 103.76260706 -133.05638237 76.07592996 -126.10546875 45.0234375 C-123.30219727 34.05178167 -118.13108557 23.77557071 -111 15 C-110.33355469 14.17113281 -109.66710937 13.34226562 -108.98046875 12.48828125 C-81.57083088 -19.76125664 -34.20935792 -23.66002547 0 0 Z " fill="yellow" transform="translate(128,15)"/>
<path d="M0 0 C0.66 0.33 1.32 0.66 2 1 C1.443125 1.6084375 0.88625 2.216875 0.3125 2.84375 C-10.92898265 15.75626386 -19.34416599 32.64772515 -20 50 C-20.07734375 51.64548828 -20.07734375 51.64548828 -20.15625 53.32421875 C-20.70786453 75.31984814 -13.68484713 95.53444818 -2 114 C-1.50612793 114.78681152 -1.01225586 115.57362305 -0.50341797 116.38427734 C2.39472924 120.9937445 5.31912423 125.58536415 8.265625 130.1640625 C10.79254997 134.09498198 13.27820134 138.0479413 15.734375 142.0234375 C16.34458496 143.00376953 16.95479492 143.98410156 17.58349609 144.99414062 C18.74061038 146.85485861 19.88995377 148.72044195 21.02978516 150.59179688 C25.62004603 157.93067549 30.98779685 165.18139622 39.0625 168.875 C39.83722656 169.24367187 40.61195312 169.61234375 41.41015625 169.9921875 C51.61267289 173.96239759 63.03498592 175.01962823 73.265625 170.55859375 C75 170 75 170 78 171 C72.83132665 174.62158745 67.90372107 177.73900044 62 180 C62.7734375 181.3303125 62.7734375 181.3303125 63.5625 182.6875 C65.0868937 186.20023331 65.14947895 187.44706507 64 191 C60.40900664 192.24303616 57.68331043 191.68116015 54 191 C48.50226429 215.67517249 48.50226429 215.67517249 49.26953125 240.69140625 C49.47023979 241.92449524 49.47023979 241.92449524 49.67500305 243.18249512 C51.20836773 252.47988417 52.94228834 261.74050648 54.6875 271 C55.31947124 274.35360153 55.947941 277.70783112 56.57421875 281.0625 C56.78977669 282.19667358 56.78977669 282.19667358 57.00968933 283.35375977 C57.55657555 286.28489597 58 289.01070668 58 292 C57.01 291.67 56.02 291.34 55 291 C53.89580843 285.09614321 52.79316924 279.19199924 51.69189453 273.28759766 C51.31795994 271.28393955 50.94361992 269.28035706 50.56884766 267.27685547 C49.51509842 261.64280955 48.46981659 256.0073317 47.43713379 250.36938477 C47.06473502 248.3508815 46.68145765 246.33439022 46.29589844 244.31835938 C44.41352178 234.04662501 44.81944229 224.42150723 46.3125 214.125 C46.44567627 213.1747998 46.57885254 212.22459961 46.71606445 211.24560547 C47.75979643 204.05626712 49.13105726 197.0251039 51 190 C50.06800781 190.32613281 49.13601562 190.65226563 48.17578125 190.98828125 C45.19195622 191.9388479 43.09476182 192.2652653 40 192 C39.67 191.67 39.34 191.34 39 191 C39.35444615 186.30358856 40.03061565 183.61594385 43 180 C41.65808594 179.50693359 41.65808594 179.50693359 40.2890625 179.00390625 C25.22608986 173.07828055 17.7080874 163.89737035 9.43847656 150.34423828 C7.50066822 147.18625531 5.50628844 144.06563031 3.51391602 140.94189453 C1.49131725 137.76301248 -0.50996061 134.57100277 -2.50927734 131.37744141 C-3.49862474 129.79960568 -4.49111311 128.22373485 -5.48681641 126.64990234 C-21.85184813 100.76260706 -33.05638237 73.07592996 -26.10546875 42.0234375 C-21.8268009 25.27726382 -12.07969602 12.07969602 0 0 Z " fill="yellow" transform="translate(28,18)"/>
<path d="M0 0 C7.59838797 0.191556 15.66074128 5.55105394 21.125 10.5 C22.125 13.5625 22.125 13.5625 22.125 16.5 C21.0625 18.375 21.0625 18.375 19.125 19.5 C13.25306537 20.2752023 9.34812987 17.93850237 4.375 15.1875 C3.60800781 14.78337891 2.84101562 14.37925781 2.05078125 13.96289062 C-3.60355855 10.90716217 -3.60355855 10.90716217 -5.875 7.5 C-5.43922369 3.03329283 -4.70550623 0.81834891 0 0 Z " fill="yellow" transform="translate(102.875,11.5)"/>
</svg>
